<?xml version="1.0" encoding="UTF-8" standalone="no"?>
<!-- Created with Inkscape (http://www.inkscape.org/) -->

<svg
   width="106mm"
   height="21.000004mm"
   viewBox="0 0 106 21.000004"
   version="1.1"
   id="svg1"
   xmlns="http://www.w3.org/2000/svg"
   xmlns:svg="http://www.w3.org/2000/svg">
  <defs
     id="defs1" />
  <g
     id="layer1"
     transform="translate(-15.499998,-49.500001)">
    <path
       style="fill:none;fill-opacity:0.8;stroke:#ffffff;stroke-width:1;stroke-linecap:round;stroke-linejoin:round"
       d="M 16,64.999998 V 49.999999 l 7.000001,6.999999 7,-6.999999 L 30,64.999996"
       id="path1" />
    <ellipse
       style="fill:none;fill-opacity:0.8;stroke:#ffffff;stroke-width:1;stroke-linecap:round;stroke-linejoin:round"
       id="path2"
       cx="37"
       cy="60"
       rx="5"
       ry="4.9999995" />
    <ellipse
       style="fill:none;fill-opacity:0.8;stroke:#ffffff;stroke-width:1;stroke-linecap:round;stroke-linejoin:round"
       id="path3"
       cx="49"
       cy="60"
       rx="5"
       ry="4.9999995" />
    <path
       style="fill:#ffffff;fill-opacity:1;stroke:none;stroke-width:1;stroke-linecap:round;stroke-linejoin:round"
       id="ellipse3"
       d="m 52.535534,63.535534 a 5,4.9999995 0 0 1 -7.071068,0 5,4.9999995 0 0 1 0,-7.071068 L 49,60 Z" />
    <path
       style="fill:none;fill-opacity:1;stroke:#ffffff;stroke-width:1;stroke-linecap:round;stroke-linejoin:round;stroke-opacity:1"
       d="m 56.000001,54.999998 v 9.999998 -4.999998 a 5.0000004,5.0000004 135 0 1 5,-5 4.9999977,4.9999977 45.000001 0 1 4.999998,4.999998 v 5"
       id="path4" />
    <path
       style="fill:none;fill-opacity:1;stroke:#ffffff;stroke-width:1;stroke-linecap:round;stroke-linejoin:round;stroke-opacity:1"
       d="m 68.000001,49.999997 v 12.999998 a 2.0000026,2.0000026 45.000029 0 0 2.000001,2.000003 l 0,0"
       id="path5" />
    <path
       style="fill:none;fill-opacity:1;stroke:#99ffaa;stroke-width:1;stroke-linecap:round;stroke-linejoin:round;stroke-opacity:1"
       d="m 68.000001,49.999997 v 12.999998 a 2.0000026,2.0000026 45.000029 0 0 2.000001,2.000003 l 0,0"
       id="path5-5"
       transform="translate(51.000001)" />
    <path
       style="fill:none;fill-opacity:1;stroke:#ffffff;stroke-width:1;stroke-linecap:round;stroke-linejoin:round;stroke-opacity:1"
       d="m 72.000002,54.999999 v 9.999998"
       id="path6" />
    <path
       style="fill:#ffffff;fill-opacity:1;stroke:none;stroke-width:0.999999;stroke-linecap:round;stroke-linejoin:round;stroke-opacity:1"
       d="m 71.500002,52.499999 0.5,1.499999 0.5,-1.499999 1.5,-0.5 -1.5,-0.499999 -0.5,-1.500001 -0.5,1.500001 -1.5,0.499999 z"
       id="path7" />
    <path
       style="fill:none;fill-opacity:1;stroke:#ffffff;stroke-width:1;stroke-linecap:round;stroke-linejoin:round;stroke-opacity:1"
       d="m 84,54.999998 v 5 a 4.9999982,4.9999982 135 0 1 -4.999998,4.999998 l -2e-6,0 a 4.9999977,4.9999977 45 0 1 -4.999998,-4.999998 v 0 a 4.9999998,4.9999998 135 0 1 5,-5 A 4.9999982,4.9999982 45 0 1 84,59.999996 v 5.000003 a 4.9999982,4.9999982 135 0 1 -4.999998,4.999998 l -5,0"
       id="path8" />
    <path
       style="fill:none;fill-opacity:1;stroke:#80eaff;stroke-width:1;stroke-linecap:round;stroke-linejoin:round;stroke-opacity:1"
       d="m 56.000001,49.999999 v 14.999997 -4.999998 a 5.0000004,5.0000004 135 0 1 5,-5 4.9999977,4.9999977 45.000001 0 1 4.999998,4.999998 v 5"
       id="path9"
       transform="translate(30.000001)" />
    <path
       style="fill:none;fill-opacity:1;stroke:#80eaff;stroke-width:1;stroke-linecap:round;stroke-linejoin:round;stroke-opacity:1"
       d="M 98.000001,54.999998 H 103"
       id="path10" />
    <path
       style="fill:none;fill-opacity:1;stroke:#80eaff;stroke-width:1;stroke-linecap:round;stroke-linejoin:round;stroke-opacity:1"
       d="m 98.000002,49.999999 -10e-7,9.999998 A 4.9999987,4.9999987 45.000002 0 0 103,64.999996 v 0"
       id="path11" />
    <path
       style="fill:none;fill-opacity:1;stroke:#99ffaa;stroke-width:1;stroke-linecap:round;stroke-linejoin:round;stroke-opacity:1"
       d="m 56.000001,54.999998 v 9.999998 -6.999998 a 3.0000004,3.0000004 135 0 1 3,-3 h 1e-6 a 2.9999974,2.9999974 45 0 1 2.999997,2.999997 v 7.000001 l 2e-6,-6.999998 a 3.0000008,3.0000008 135.00001 0 1 3.000001,-2.999999 2.9999999,2.9999999 45.00002 0 1 2.999999,3 v 7"
       id="path12"
       transform="translate(49.000001)" />
  </g>
</svg>
