<?xml version="1.0" encoding="UTF-8" standalone="no"?>
<!-- Created with Inkscape (http://www.inkscape.org/) -->

<svg
   width="149mm"
   height="23.999996mm"
   viewBox="0 0 149 23.999996"
   version="1.1"
   id="svg1"
   xmlns:xlink="http://www.w3.org/1999/xlink"
   xmlns="http://www.w3.org/2000/svg"
   xmlns:svg="http://www.w3.org/2000/svg">
  <defs
     id="defs1">
    <linearGradient
       id="linearGradient18">
      <stop
         style="stop-color:#00ffff;stop-opacity:1;"
         offset="0"
         id="stop18" />
      <stop
         style="stop-color:#ff00ff;stop-opacity:1;"
         offset="1"
         id="stop19" />
    </linearGradient>
    <linearGradient
       xlink:href="#linearGradient18"
       id="linearGradient24"
       x1="3"
       y1="79.999992"
       x2="147"
       y2="79.999992"
       gradientUnits="userSpaceOnUse"
       gradientTransform="translate(3,68.000002)" />
    <linearGradient
       xlink:href="#linearGradient18"
       id="linearGradient2"
       gradientUnits="userSpaceOnUse"
       x1="3"
       y1="79.999992"
       x2="147"
       y2="79.999992"
       gradientTransform="translate(3,68.000002)" />
    <linearGradient
       xlink:href="#linearGradient18"
       id="linearGradient3"
       gradientUnits="userSpaceOnUse"
       x1="3"
       y1="79.999992"
       x2="147"
       y2="79.999992"
       gradientTransform="translate(3,68.000002)" />
    <linearGradient
       xlink:href="#linearGradient18"
       id="linearGradient4"
       gradientUnits="userSpaceOnUse"
       x1="3"
       y1="79.999992"
       x2="147"
       y2="79.999992"
       gradientTransform="translate(3,68.000002)" />
  </defs>
  <g
     id="layer1"
     transform="translate(-3,-68.000002)">
    <path
       style="fill:none;fill-opacity:0.8;stroke:#ffffff;stroke-width:4;stroke-linecap:round;stroke-linejoin:round;stroke-dasharray:none;stroke-opacity:1"
       transform="translate(96)"
       d="m -75.999998,79.999998 v 4.999999 a 4.9999986,4.9999986 45 0 0 4.999999,4.999999 h 2e-6 a 4.9999984,4.9999984 135 0 0 4.999998,-4.999998 v -5 9.999998"
       id="path39" />
    <path
       style="fill:none;fill-opacity:0.8;stroke:#ffffff;stroke-width:4;stroke-linecap:round;stroke-linejoin:round;stroke-dasharray:none;stroke-opacity:1"
       transform="translate(96)"
       d="m -60.999999,79.999998 -2e-6,9.999998 10e-7,-4.999997 a 5.0000014,5.0000014 135 0 1 5.000001,-5.000001 4.9999974,4.9999974 45.000011 0 1 4.999997,5 l -10e-7,4.999998"
       id="path37" />
    <path
       style="fill:none;fill-opacity:0.8;stroke:#ffffff;stroke-width:4;stroke-linecap:round;stroke-linejoin:round;stroke-dasharray:none;stroke-opacity:1"
       transform="translate(96)"
       d="m -45.999999,84.999996 h 9.999998 v 0 a 4.9999977,4.9999977 45 0 0 -4.999998,-4.999998 l 0,0 a 4.9999996,4.9999996 135 0 0 -5,5 4.9999994,4.9999994 44.999989 0 0 5,4.999998 h 4.999998"
       id="path35" />
    <path
       style="fill:none;fill-opacity:0.8;stroke:#ffffff;stroke-width:4;stroke-linecap:round;stroke-linejoin:round;stroke-dasharray:none;stroke-opacity:1"
       transform="translate(156)"
       d="m -75.999998,79.999998 v 4.999999 a 4.9999986,4.9999986 45 0 0 4.999999,4.999999 h 2e-6 a 4.9999984,4.9999984 135 0 0 4.999998,-4.999998 v -5 9.999998"
       id="path39-2" />
    <path
       style="fill:none;fill-opacity:0.8;stroke:#ffffff;stroke-width:4;stroke-linecap:round;stroke-linejoin:round;stroke-dasharray:none;stroke-opacity:1"
       transform="translate(171.00001)"
       d="m -60.999999,79.999998 -2e-6,9.999998 10e-7,-4.999997 a 5.0000014,5.0000014 135 0 1 5.000001,-5.000001 4.9999974,4.9999974 45.000011 0 1 4.999997,5 l -10e-7,4.999998"
       id="path37-9" />
    <path
       style="fill:none;fill-opacity:0.8;stroke:#ffffff;stroke-width:4;stroke-linecap:round;stroke-linejoin:round;stroke-dasharray:none;stroke-opacity:1"
       transform="translate(171.00001)"
       d="m -45.999999,84.999996 h 9.999998 v 0 a 4.9999977,4.9999977 45 0 0 -4.999998,-4.999998 l 0,0 a 4.9999996,4.9999996 135 0 0 -5,5 4.9999994,4.9999994 44.999989 0 0 5,4.999998 h 4.999998"
       id="path35-1" />
    <path
       style="fill:none;fill-opacity:0.8;stroke:#ffffff;stroke-width:4;stroke-linecap:round;stroke-linejoin:round;stroke-dasharray:none;stroke-opacity:1"
       transform="translate(101)"
       d="m -5.999998,79.999998 -2e-6,9.999998 1e-6,-4.999997 a 5.0000017,5.0000017 135 0 1 5.0000012,-5 4.9999993,4.9999993 44.999998 0 1 4.9999998,4.999999"
       id="path27" />
    <g
       id="g19"
       style="stroke:url(#linearGradient24)">
      <path
         style="fill:none;fill-opacity:0.8;stroke:url(#linearGradient2);stroke-width:4;stroke-linecap:round;stroke-linejoin:round;stroke-dasharray:none;stroke-opacity:1"
         d="M 5.0000017,69.999998 H 150"
         id="path1" />
      <path
         style="fill:none;fill-opacity:0.8;stroke:url(#linearGradient3);stroke-width:4;stroke-linecap:round;stroke-linejoin:round;stroke-dasharray:none;stroke-opacity:1"
         d="m 15,69.999997 v 14.999999 a 4.9999998,4.9999998 135 0 1 -5,5 h 0 a 5,5 45 0 1 -5,-5"
         id="path2" />
      <path
         style="fill:none;fill-opacity:0.8;stroke:url(#linearGradient4);stroke-width:4;stroke-linecap:round;stroke-linejoin:round;stroke-dasharray:none;stroke-opacity:1"
         d="M 75.000005,89.999995 V 69.999996"
         id="path7" />
    </g>
    <path
       style="fill:none;fill-opacity:0.8;stroke:#ffffff;stroke-width:4;stroke-linecap:round;stroke-linejoin:round;stroke-dasharray:none;stroke-opacity:1"
       transform="translate(146)"
       d="m -5.999998,79.999998 -2e-6,9.999998 1e-6,-4.999997 a 5.0000017,5.0000017 135 0 1 5.0000012,-5 4.9999993,4.9999993 44.999998 0 1 4.9999998,4.999999"
       id="path3" />
    <path
       style="fill:none;fill-opacity:0.8;stroke:#000000;stroke-width:3;stroke-linecap:round;stroke-linejoin:round;stroke-dasharray:none;stroke-opacity:1"
       transform="translate(96)"
       d="m -75.999998,79.999998 v 4.999999 a 4.9999986,4.9999986 45 0 0 4.999999,4.999999 h 2e-6 a 4.9999984,4.9999984 135 0 0 4.999998,-4.999998 v -5 9.999998"
       id="path62" />
    <path
       style="fill:none;fill-opacity:0.8;stroke:#000000;stroke-width:3;stroke-linecap:round;stroke-linejoin:round;stroke-dasharray:none;stroke-opacity:1"
       transform="translate(96)"
       d="m -60.999999,79.999998 -2e-6,9.999998 10e-7,-4.999997 a 5.0000014,5.0000014 135 0 1 5.000001,-5.000001 4.9999974,4.9999974 45.000011 0 1 4.999997,5 l -10e-7,4.999998"
       id="path63" />
    <path
       style="fill:none;fill-opacity:0.8;stroke:#000000;stroke-width:3;stroke-linecap:round;stroke-linejoin:round;stroke-dasharray:none;stroke-opacity:1"
       transform="translate(96)"
       d="m -45.999999,84.999996 h 9.999998 v 0 a 4.9999977,4.9999977 45 0 0 -4.999998,-4.999998 l 0,0 a 4.9999996,4.9999996 135 0 0 -5,5 4.9999994,4.9999994 44.999989 0 0 5,4.999998 h 4.999998"
       id="path64" />
    <path
       style="fill:none;fill-opacity:0.8;stroke:#000000;stroke-width:3;stroke-linecap:round;stroke-linejoin:round;stroke-dasharray:none;stroke-opacity:1"
       transform="translate(156)"
       d="m -75.999998,79.999998 v 4.999999 a 4.9999986,4.9999986 45 0 0 4.999999,4.999999 h 2e-6 a 4.9999984,4.9999984 135 0 0 4.999998,-4.999998 v -5 9.999998"
       id="path65" />
    <path
       style="fill:none;fill-opacity:0.8;stroke:#000000;stroke-width:3;stroke-linecap:round;stroke-linejoin:round;stroke-dasharray:none;stroke-opacity:1"
       transform="translate(171.00001)"
       d="m -60.999999,79.999998 -2e-6,9.999998 10e-7,-4.999997 a 5.0000014,5.0000014 135 0 1 5.000001,-5.000001 4.9999974,4.9999974 45.000011 0 1 4.999997,5 l -10e-7,4.999998"
       id="path66" />
    <path
       style="fill:none;fill-opacity:0.8;stroke:#000000;stroke-width:3;stroke-linecap:round;stroke-linejoin:round;stroke-dasharray:none;stroke-opacity:1"
       transform="translate(171.00001)"
       d="m -45.999999,84.999996 h 9.999998 v 0 a 4.9999977,4.9999977 45 0 0 -4.999998,-4.999998 l 0,0 a 4.9999996,4.9999996 135 0 0 -5,5 4.9999994,4.9999994 44.999989 0 0 5,4.999998 h 4.999998"
       id="path67" />
    <path
       style="fill:none;fill-opacity:0.8;stroke:#000000;stroke-width:3;stroke-linecap:round;stroke-linejoin:round;stroke-dasharray:none;stroke-opacity:1"
       transform="translate(101)"
       d="m -5.999998,79.999998 -2e-6,9.999998 1e-6,-4.999997 a 5.0000017,5.0000017 135 0 1 5.0000012,-5 4.9999993,4.9999993 44.999998 0 1 4.9999998,4.999999"
       id="path68" />
    <path
       style="fill:none;fill-opacity:0.8;stroke:#000000;stroke-width:3;stroke-linecap:round;stroke-linejoin:round;stroke-dasharray:none;stroke-opacity:1"
       transform="translate(146)"
       d="m -5.999998,79.999998 -2e-6,9.999998 1e-6,-4.999997 a 5.0000017,5.0000017 135 0 1 5.0000012,-5 4.9999993,4.9999993 44.999998 0 1 4.9999998,4.999999"
       id="path69" />
  </g>
</svg>
